<mxfile host="app.diagrams.net" modified="2020-10-31T12:09:47.762Z" agent="5.0 (Windows)" etag="8qyp1BpC0JxvkM52Hnbl" version="13.8.3" type="github">
  <diagram id="1pa6wYkWjh_nkZDFkwck" name="Page-1">
    <mxGraphModel dx="642" dy="265" grid="1" gridSize="10" guides="1" tooltips="1" connect="1" arrows="1" fold="1" page="1" pageScale="1" pageWidth="1169" pageHeight="827" math="0" shadow="0">
      <root>
        <mxCell id="0" />
        <mxCell id="1" parent="0" />
        <mxCell id="r_Ez-MHLXR1tE7TCJvgH-2" value="" style="whiteSpace=wrap;html=1;shape=mxgraph.basic.document;fillColor=#fff2cc;strokeColor=#d6b656;" parent="1" vertex="1">
          <mxGeometry x="150" y="70" width="100" height="100" as="geometry" />
        </mxCell>
      </root>
    </mxGraphModel>
  </diagram>
</mxfile>
